# xmcd
#
# Track frame offsets:
#	150
#	17877
#	35804
#	52046
#	72996
#	90375
#	104374
#	126312
#	148016
#	157180
#
# Disc length: 2349 seconds
#
# Revision: 1
# Processed by: cddbd v1.5.2PL0 Copyright (c) Steve Scherf et al.
# Submitted via: audiograbber 1.83.01
#
DISCID=93092b0a
DTITLE=Lydia Loveless - Real
DYEAR=2016
DGENRE=Country
TTITLE0=Same To You
TTITLE1=Longer
TTITLE2=More Than Ever
TTITLE3=Heaven
TTITLE4=Out On Love
TTITLE5=Midwestern Guys
TTITLE6=Bilbao
TTITLE7=European
TTITLE8=Clumps
TTITLE9=Real
EXTD=
EXTT0=
EXTT1=
EXTT2=
EXTT3=
EXTT4=
EXTT5=
EXTT6=
EXTT7=
EXTT8=
EXTT9=
PLAYORDER=
